<?xml version="1.0" encoding="utf-8"?>
<!-- Generator: Adobe Illustrator 25.0.0, SVG Export Plug-In . SVG Version: 6.00 Build 0)  -->
<svg version="1.1" id="Layer_1" xmlns="http://www.w3.org/2000/svg" xmlns:xlink="http://www.w3.org/1999/xlink" x="0px" y="0px"
	 viewBox="0 0 387.9 99.5" style="enable-background:new 0 0 387.9 99.5;" xml:space="preserve">
<style type="text/css">
	.st0{fill:#878787;}
</style>
<g>
	<path class="st0" d="M20.7,80.1c7.6,2.4,16.9,3.6,27.8,3.6c10.3,0,19.2-1.1,26.6-3.2c7.3-2.1,12.9-4.9,16.6-8.3
		c3.7-3.4,5.6-7.2,5.6-11.1c0-3.9-1.9-7.6-5.6-11c-3.7-3.4-9.2-6.2-16.6-8.3c-7.3-2.1-16.2-3.2-26.6-3.2c-16.1,0-28.8,2.6-38.2,7.8
		L22.4,1.9h74.8v13.9H33l-2.6,10.1c5.9-0.9,12-1.3,18.1-1.3c13.2,0,24.6,1.7,34,5.2c9.4,3.4,16.6,7.9,21.3,13.5s7.2,11.5,7.2,17.9
		s-2.4,12.3-7.2,17.9C99.1,84.5,92,89,82.5,92.5c-9.5,3.4-20.8,5.2-34,5.2c-10.8,0-20.1-1.1-28.1-3.3C12.3,92.1,5.5,89.1,0,85.2
		l3.8-14.4C7.5,74.6,13.1,77.8,20.7,80.1z"/>
	<path class="st0" d="M221,7c9.4,4.6,16.5,10.7,21.3,18.4c4.8,7.5,7.2,15.6,7.2,24.2c0,8.7-2.4,16.7-7.2,24.2
		c-4.8,7.7-11.9,13.9-21.3,18.5c-9.5,4.7-20.9,7-34.2,7c-13.2,0-24.5-2.3-34-7c-9.4-4.6-16.5-10.7-21.3-18.4
		c-4.8-7.6-7.2-15.7-7.2-24.2c0-8.7,2.4-16.9,7.2-24.4c4.9-7.7,12-13.8,21.3-18.4c9.5-4.7,20.9-7,34-7C199.9,0,211.3,2.3,221,7z
		 M186.8,14c-10.2,0-19.1,1.7-26.5,5c-7.3,3.3-12.9,7.7-16.7,13.2c-3.7,5.4-5.6,11.2-5.6,17.5c0,4.8,1.1,9.4,3.4,13.8
		c2.2,4.4,5.5,8.3,9.9,11.7l57.9-57.8C202.7,15.2,195.2,14,186.8,14z M186.8,85.6c10.3,0,19.3-1.7,26.8-5
		c7.2-3.3,12.8-7.7,16.6-13.2c3.7-5.4,5.6-11.2,5.6-17.5c0-4.7-1.1-9.3-3.4-13.9c-2.3-4.5-5.6-8.4-9.9-11.7l-57.9,57.9
		C171.5,84.4,178.9,85.6,186.8,85.6z"/>
	<path class="st0" d="M359.4,7c9.4,4.6,16.5,10.7,21.3,18.4c4.8,7.5,7.2,15.6,7.2,24.2c0,8.7-2.4,16.7-7.2,24.2
		c-4.8,7.7-11.9,13.9-21.3,18.5c-9.5,4.7-20.9,7-34.2,7c-13.2,0-24.5-2.3-34-7c-9.4-4.6-16.5-10.7-21.3-18.4
		c-4.8-7.6-7.2-15.7-7.2-24.2c0-8.7,2.4-16.9,7.2-24.4c4.9-7.7,12-13.8,21.3-18.4c9.5-4.7,20.9-7,34-7C338.4,0,349.8,2.3,359.4,7z
		 M325.2,14c-10.2,0-19.1,1.7-26.5,5c-7.3,3.3-12.9,7.7-16.7,13.2c-3.7,5.4-5.6,11.2-5.6,17.5c0,4.8,1.1,9.4,3.4,13.8
		c2.2,4.4,5.5,8.3,9.9,11.7l57.9-57.8C341.1,15.2,333.6,14,325.2,14z M325.2,85.6c10.3,0,19.3-1.7,26.8-5
		c7.2-3.3,12.8-7.7,16.6-13.2c3.7-5.4,5.6-11.2,5.6-17.5c0-4.7-1.1-9.3-3.4-13.9c-2.3-4.5-5.6-8.4-9.9-11.7l-57.9,57.9
		C309.9,84.4,317.4,85.6,325.2,85.6z"/>
</g>
</svg>
