<?xml version="1.0" encoding="utf-8"?>
<!-- Generator: Adobe Illustrator 25.0.0, SVG Export Plug-In . SVG Version: 6.00 Build 0)  -->
<svg version="1.1" id="Layer_1" xmlns="http://www.w3.org/2000/svg" xmlns:xlink="http://www.w3.org/1999/xlink" x="0px" y="0px"
	 viewBox="0 0 286.4 99.5" style="enable-background:new 0 0 286.4 99.5;" xml:space="preserve">
<style type="text/css">
	.st0{fill:#878787;}
</style>
<g>
	<path class="st0" d="M106.8,69.8v13.9h-14v13.9H78.8V83.7H0v-5.8L92.7,0v69.8H106.8z M78.8,69.8V29.9L31.4,69.8H78.8z"/>
	<path class="st0" d="M148,1.1v96.6h-14V28.9H120L148,1.1z"/>
	<path class="st0" d="M219.9,99.5l20.7-20.7c-5.2,0.8-10.8,1.2-16.8,1.2c-13.4,0-24.8-1.9-34-5.7c-9.5-3.7-16.6-8.7-21.3-14.8
		c-4.8-6.1-7.2-12.6-7.2-19.5c0-6.8,2.4-13.3,7.2-19.6c4.7-6,11.8-11,21.3-14.8c9.4-3.7,20.8-5.6,34-5.6c13.4,0,24.8,1.9,34.2,5.6
		c9.5,3.9,16.6,8.8,21.3,14.8c4.8,6.3,7.2,12.8,7.2,19.6c0,4.1-0.9,8.1-2.6,12.2c-1.9,4.1-4.5,7.7-7.9,11l-36.2,36.3H219.9z
		 M250.2,62.4c7.4-2.5,13-5.7,16.8-9.7c3.7-4,5.6-8.2,5.6-12.7c0-4.5-1.9-8.7-5.6-12.7c-3.6-3.9-9.1-7.1-16.6-9.7
		c-7.4-2.4-16.3-3.6-26.8-3.6c-10.4,0-19.3,1.2-26.5,3.6c-7.5,2.6-13.1,5.8-16.7,9.7c-3.7,4-5.6,8.2-5.6,12.7
		c0,4.5,1.9,8.7,5.6,12.7c3.6,3.9,9.1,7.1,16.6,9.7c7.2,2.5,16,3.7,26.5,3.7C234,66.1,242.9,64.9,250.2,62.4z"/>
</g>
</svg>
