<?xml version="1.0" encoding="utf-8"?>
<!-- Generator: Adobe Illustrator 25.0.0, SVG Export Plug-In . SVG Version: 6.00 Build 0)  -->
<svg version="1.1" id="Layer_1" xmlns="http://www.w3.org/2000/svg" xmlns:xlink="http://www.w3.org/1999/xlink" x="0px" y="0px"
	 viewBox="0 0 365.2 99.5" style="enable-background:new 0 0 365.2 99.5;" xml:space="preserve">
<style type="text/css">
	.st0{fill:#878787;}
</style>
<g>
	<path class="st0" d="M106.8,69.8v13.9h-14v13.9H78.8V83.7H0v-5.8L92.7,0v69.8H106.8z M78.8,69.8V29.9L31.4,69.8H78.8z"/>
	<path class="st0" d="M216.7,7c9.4,4.6,16.5,10.7,21.3,18.4c4.8,7.5,7.2,15.6,7.2,24.2c0,8.7-2.4,16.7-7.2,24.2
		c-4.8,7.7-11.9,13.9-21.3,18.5c-9.5,4.7-20.9,7-34.2,7c-13.2,0-24.5-2.3-34-7c-9.4-4.6-16.5-10.7-21.3-18.4
		c-4.8-7.6-7.2-15.7-7.2-24.2c0-8.7,2.4-16.9,7.2-24.4c4.9-7.7,12-13.8,21.3-18.4c9.5-4.7,20.9-7,34-7C195.7,0,207.1,2.3,216.7,7z
		 M182.6,14c-10.2,0-19.1,1.7-26.5,5c-7.3,3.3-12.9,7.7-16.7,13.2c-3.7,5.4-5.6,11.2-5.6,17.5c0,4.8,1.1,9.4,3.4,13.8
		c2.2,4.4,5.5,8.3,9.9,11.7l57.9-57.8C198.4,15.2,190.9,14,182.6,14z M182.6,85.6c10.3,0,19.3-1.7,26.8-5
		c7.2-3.3,12.8-7.7,16.6-13.2c3.7-5.4,5.6-11.2,5.6-17.5c0-4.7-1.1-9.3-3.4-13.9c-2.3-4.5-5.6-8.4-9.9-11.7l-57.9,57.9
		C167.2,84.4,174.7,85.6,182.6,85.6z"/>
	<path class="st0" d="M365.2,69.8v13.9h-14v13.9h-13.9V83.7h-78.8v-5.8L351.2,0v69.8H365.2z M337.3,69.8V29.9l-47.4,39.9H337.3z"/>
</g>
</svg>
