<?xml version="1.0" encoding="utf-8"?>
<!-- Generator: Adobe Illustrator 25.0.0, SVG Export Plug-In . SVG Version: 6.00 Build 0)  -->
<svg version="1.1" id="Layer_1" xmlns="http://www.w3.org/2000/svg" xmlns:xlink="http://www.w3.org/1999/xlink" x="0px" y="0px"
	 viewBox="0 0 285.2 99.1" style="enable-background:new 0 0 285.2 99.1;" xml:space="preserve">
<style type="text/css">
  .four01{fill:#EBEBEB;}
</style>
<g>
	<path class="four01" d="M106.3,69.5v13.8h-14v13.8H78.5V83.4H0v-5.8L92.3,0v69.5H106.3z M78.5,69.5V29.8L31.3,69.5H78.5z"/>
	<path class="four01" d="M215.8,7c9.3,4.6,16.4,10.7,21.2,18.3c4.7,7.5,7.1,15.5,7.1,24.1c0,8.6-2.4,16.7-7.1,24.1c-4.7,7.6-11.8,13.8-21.2,18.5
		c-9.5,4.7-20.8,7-34,7c-13.1,0-24.4-2.3-33.9-7c-9.3-4.6-16.4-10.7-21.2-18.3c-4.7-7.6-7.1-15.6-7.1-24.1c0-8.7,2.4-16.8,7.1-24.3
		c4.8-7.6,11.9-13.8,21.2-18.3c9.5-4.7,20.8-7,33.9-7C194.8,0,206.2,2.3,215.8,7z M181.7,14c-10.2,0-19,1.7-26.4,5
		c-7.3,3.3-12.8,7.6-16.6,13.2c-3.7,5.4-5.5,11.2-5.5,17.4c0,4.7,1.1,9.3,3.4,13.7c2.2,4.4,5.5,8.3,9.9,11.6l57.6-57.5
		C197.6,15.1,190.1,14,181.7,14z M181.7,85.2c10.3,0,19.2-1.7,26.6-5c7.2-3.3,12.7-7.6,16.5-13.2c3.7-5.4,5.5-11.2,5.5-17.4
		c0-4.7-1.1-9.3-3.4-13.8c-2.3-4.5-5.6-8.4-9.9-11.6l-57.6,57.6C166.5,84.1,173.9,85.2,181.7,85.2z"/>
	<path class="four01" d="M285.2,1.1v96.2h-14V28.8h-13.8L285.2,1.1z"/>
</g>
</svg>
